<svg xmlns="http://www.w3.org/2000/svg" xmlns:xlink="http://www.w3.org/1999/xlink" width="500" zoomAndPan="magnify" viewBox="0 0 375 374.999991" height="500" preserveAspectRatio="xMidYMid meet" version="1.0"><defs><g/><clipPath id="11ce4db807"><path d="M 0 6.976562 L 350.113281 6.976562 L 350.113281 357.089844 L 0 357.089844 Z M 0 6.976562 " clip-rule="nonzero"/></clipPath><clipPath id="db4c53285f"><path d="M 175.058594 6.976562 C 78.375 6.976562 0 85.351562 0 182.03125 C 0 278.714844 78.375 357.089844 175.058594 357.089844 C 271.738281 357.089844 350.113281 278.714844 350.113281 182.03125 C 350.113281 85.351562 271.738281 6.976562 175.058594 6.976562 Z M 175.058594 6.976562 " clip-rule="nonzero"/></clipPath><clipPath id="fed5817dc1"><path d="M 251 156 L 331 156 L 331 311 L 251 311 Z M 251 156 " clip-rule="nonzero"/></clipPath><clipPath id="ee43a45438"><path d="M 359.625 170.808594 L 280.191406 325.617188 L 184.101562 276.3125 L 263.535156 121.503906 Z M 359.625 170.808594 " clip-rule="nonzero"/></clipPath><clipPath id="fabb5017bd"><path d="M 359.625 170.808594 L 280.191406 325.617188 L 184.101562 276.3125 L 263.535156 121.503906 Z M 359.625 170.808594 " clip-rule="nonzero"/></clipPath><clipPath id="42da8baa71"><path d="M 359.5 171.054688 L 280.386719 325.238281 L 222.554688 295.5625 L 301.667969 141.378906 Z M 359.5 171.054688 " clip-rule="nonzero"/></clipPath><clipPath id="41ffeaff32"><path d="M 227 175 L 294 175 L 294 264 L 227 264 Z M 227 175 " clip-rule="nonzero"/></clipPath><clipPath id="c7bbe3c175"><path d="M 359.625 170.808594 L 280.191406 325.617188 L 184.101562 276.3125 L 263.535156 121.503906 Z M 359.625 170.808594 " clip-rule="nonzero"/></clipPath><clipPath id="82a52d17d6"><path d="M 359.625 170.808594 L 280.191406 325.617188 L 184.101562 276.3125 L 263.535156 121.503906 Z M 359.625 170.808594 " clip-rule="nonzero"/></clipPath><clipPath id="d950978eeb"><path d="M 248 144 L 309 144 L 309 179 L 248 179 Z M 248 144 " clip-rule="nonzero"/></clipPath><clipPath id="1346cb5922"><path d="M 359.625 170.808594 L 280.191406 325.617188 L 184.101562 276.3125 L 263.535156 121.503906 Z M 359.625 170.808594 " clip-rule="nonzero"/></clipPath><clipPath id="58ee254367"><path d="M 359.625 170.808594 L 280.191406 325.617188 L 184.101562 276.3125 L 263.535156 121.503906 Z M 359.625 170.808594 " clip-rule="nonzero"/></clipPath><clipPath id="8057b31c20"><path d="M 310.578125 173.046875 L 305.273438 183.386719 L 247.269531 153.625 L 252.578125 143.285156 Z M 310.578125 173.046875 " clip-rule="nonzero"/></clipPath></defs><g clip-path="url(#11ce4db807)"><g clip-path="url(#db4c53285f)"><path fill="#ffab00" d="M 0 6.976562 L 350.113281 6.976562 L 350.113281 357.089844 L 0 357.089844 Z M 0 6.976562 " fill-opacity="1" fill-rule="nonzero"/></g></g><g fill="#000000" fill-opacity="1"><g transform="translate(42.011505, 278.916697)"><g><path d="M 206.734375 -87.34375 C 207.910156 -91.457031 210.113281 -94.445312 213.34375 -96.3125 C 216.582031 -98.175781 220.066406 -99.109375 223.796875 -99.109375 C 228.492188 -99.109375 232.800781 -97.785156 236.71875 -95.140625 C 240.644531 -92.492188 242.609375 -88.71875 242.609375 -83.8125 C 242.609375 -83.226562 242.5625 -82.59375 242.46875 -81.90625 C 242.375 -81.21875 242.226562 -80.476562 242.03125 -79.6875 C 236.925781 -61.851562 227.90625 -47.445312 214.96875 -36.46875 C 202.03125 -25.488281 186.9375 -20 169.6875 -20 C 163.019531 -20 156.84375 -20.878906 151.15625 -22.640625 C 142.332031 -13.617188 132.285156 -7.050781 121.015625 -2.9375 C 109.742188 1.175781 98.519531 3.234375 87.34375 3.234375 C 75.769531 3.234375 64.785156 1.078125 54.390625 -3.234375 C 44.003906 -7.546875 36.265625 -13.328125 31.171875 -20.578125 C 29.796875 -12.546875 26.609375 -6.617188 21.609375 -2.796875 C 16.609375 1.023438 11.5625 2.9375 6.46875 2.9375 C 1.570312 2.9375 -2.832031 1.269531 -6.75 -2.0625 C -10.675781 -5.394531 -12.640625 -10.097656 -12.640625 -16.171875 C -12.640625 -17.742188 -12.492188 -19.410156 -12.203125 -21.171875 C -11.910156 -22.941406 -11.375 -24.804688 -10.59375 -26.765625 L 66.46875 -244.671875 C 68.625 -251.535156 72.148438 -256.535156 77.046875 -259.671875 C 81.953125 -262.804688 86.851562 -264.375 91.75 -264.375 C 96.84375 -264.375 101.253906 -263 104.984375 -260.25 C 108.710938 -257.507812 110.578125 -253.691406 110.578125 -248.796875 C 116.265625 -251.535156 121.703125 -253.34375 126.890625 -254.21875 C 132.085938 -255.101562 136.742188 -255.546875 140.859375 -255.546875 C 143.015625 -255.546875 144.875 -255.5 146.4375 -255.40625 C 148.007812 -255.3125 149.484375 -255.164062 150.859375 -254.96875 C 159.484375 -254.1875 167.421875 -251.6875 174.671875 -247.46875 C 181.929688 -243.25 187.816406 -237.507812 192.328125 -230.25 C 196.835938 -223 199.09375 -214.378906 199.09375 -204.390625 C 199.09375 -196.929688 197.671875 -189.28125 194.828125 -181.4375 C 191.984375 -173.601562 188.109375 -166.300781 183.203125 -159.53125 C 178.304688 -152.769531 172.523438 -147.132812 165.859375 -142.625 C 172.128906 -135.957031 176.585938 -128.75 179.234375 -121 C 181.878906 -113.257812 183.203125 -105.472656 183.203125 -97.640625 C 183.203125 -90.179688 182.222656 -82.972656 180.265625 -76.015625 C 178.304688 -69.054688 175.660156 -62.734375 172.328125 -57.046875 L 172.625 -57.046875 C 180.664062 -57.046875 187.578125 -59.835938 193.359375 -65.421875 C 199.140625 -71.015625 203.597656 -78.320312 206.734375 -87.34375 Z M 101.453125 -172.625 C 104.785156 -174 108.507812 -174.6875 112.625 -174.6875 C 116.945312 -174.6875 120.921875 -174.097656 124.546875 -172.921875 C 128.171875 -171.742188 130.671875 -170.566406 132.046875 -169.390625 C 139.097656 -172.328125 143.898438 -176.734375 146.453125 -182.609375 C 149.003906 -188.492188 150.28125 -193.597656 150.28125 -197.921875 C 150.28125 -203.015625 148.414062 -207.03125 144.6875 -209.96875 C 140.957031 -212.914062 136.445312 -214.390625 131.15625 -214.390625 C 124.882812 -214.390625 118.171875 -212.625 111.015625 -209.09375 C 103.859375 -205.5625 98.414062 -200.171875 94.6875 -192.921875 L 59.40625 -95.28125 C 63.125 -96.851562 67.53125 -98.03125 72.625 -98.8125 C 77.726562 -99.59375 82.632812 -99.984375 87.34375 -99.984375 C 97.144531 -99.785156 105.96875 -97.972656 113.8125 -94.546875 C 121.65625 -91.117188 128.222656 -86.851562 133.515625 -81.75 C 134.691406 -85.082031 135.523438 -88.117188 136.015625 -90.859375 C 136.503906 -93.609375 136.75 -96.257812 136.75 -98.8125 C 136.75 -109.007812 132.925781 -114.988281 125.28125 -116.75 C 122.332031 -115.570312 118.507812 -114.984375 113.8125 -114.984375 C 108.320312 -114.984375 102.679688 -116.40625 96.890625 -119.25 C 91.109375 -122.09375 86.945312 -127.4375 84.40625 -135.28125 C 83.8125 -138.019531 83.515625 -140.664062 83.515625 -143.21875 C 83.515625 -150.082031 85.328125 -156.207031 88.953125 -161.59375 C 92.585938 -166.988281 96.753906 -170.664062 101.453125 -172.625 Z M 84.109375 -33.8125 C 89.398438 -33.8125 94.984375 -35.035156 100.859375 -37.484375 C 106.742188 -39.941406 111.941406 -43.617188 116.453125 -48.515625 C 112.535156 -52.441406 108.46875 -55.828125 104.25 -58.671875 C 100.03125 -61.515625 94.882812 -62.9375 88.8125 -62.9375 C 83.320312 -62.9375 78.710938 -61.757812 74.984375 -59.40625 C 71.265625 -57.050781 68.816406 -53.914062 67.640625 -50 C 67.441406 -49.207031 67.289062 -48.46875 67.1875 -47.78125 C 67.09375 -47.101562 67.046875 -46.367188 67.046875 -45.578125 C 67.046875 -42.242188 68.515625 -39.445312 71.453125 -37.1875 C 74.398438 -34.9375 78.617188 -33.8125 84.109375 -33.8125 Z M 84.109375 -33.8125 "/></g></g></g><g clip-path="url(#fed5817dc1)"><g clip-path="url(#ee43a45438)"><g clip-path="url(#fabb5017bd)"><g clip-path="url(#42da8baa71)"><path fill="#ffffff" d="M 326.792969 189.617188 L 326.800781 189.621094 M 251.59375 310.4375 L 251.589844 310.464844 L 251.613281 310.417969 L 282.539062 282.222656 L 282.574219 282.21875 L 282.582031 282.1875 L 303.9375 262.714844 L 303.949219 262.707031 L 303.972656 262.707031 L 303.984375 262.671875 L 319.933594 248.132812 L 319.941406 248.144531 L 323.976562 213.730469 L 326.800781 189.617188 L 330.707031 156.28125 L 298.414062 185.722656 L 297.078125 186.941406 L 278.386719 203.980469 L 262.355469 218.597656 L 259.476562 243.160156 L 256.886719 265.269531 L 256.210938 271.019531 L 251.597656 310.425781 L 251.585938 310.445312 L 251.59375 310.4375 " fill-opacity="1" fill-rule="nonzero"/></g></g></g></g><g clip-path="url(#41ffeaff32)"><g clip-path="url(#c7bbe3c175)"><g clip-path="url(#82a52d17d6)"><path fill="#ffffff" d="M 293.800781 185.257812 L 278.394531 177.351562 C 278.382812 177.347656 278.371094 177.339844 278.359375 177.332031 C 271.949219 174.042969 263.914062 175.40625 256.09375 180.269531 C 248.195312 185.179688 240.511719 193.65625 234.933594 204.527344 C 234.214844 205.925781 233.550781 207.332031 232.9375 208.734375 L 232.9375 208.738281 C 228.195312 219.601562 226.574219 230.496094 227.9375 239.226562 C 229.121094 246.824219 232.558594 252.785156 238.167969 255.664062 C 238.179688 255.667969 238.191406 255.671875 238.203125 255.679688 L 253.609375 263.585938 L 259.078125 216.914062 L 293.800781 185.257812 " fill-opacity="1" fill-rule="nonzero"/></g></g></g><g clip-path="url(#d950978eeb)"><g clip-path="url(#1346cb5922)"><g clip-path="url(#58ee254367)"><g clip-path="url(#8057b31c20)"><path fill="#ffffff" d="M 262.898438 159.835938 L 263.121094 159.921875 L 276.980469 165.425781 L 277.585938 165.667969 L 284.261719 168.320312 L 283.996094 168.835938 L 291.066406 172.464844 C 291.339844 173.496094 292.03125 174.417969 293.058594 174.945312 C 293.585938 175.214844 294.144531 175.351562 294.695312 175.371094 C 295.597656 175.402344 296.484375 175.121094 297.203125 174.578125 L 305.800781 178.988281 L 308.519531 176.503906 L 298.75 171.492188 C 298.757812 170.0625 297.984375 168.683594 296.628906 167.984375 C 295.601562 167.457031 294.449219 167.433594 293.453125 167.816406 L 286.382812 164.1875 L 286.09375 164.75 L 282.476562 162.421875 L 277.976562 159.53125 L 266.894531 152.402344 L 266.855469 152.378906 L 260.847656 148.511719 L 255.46875 145.058594 C 255.355469 144.980469 255.21875 144.90625 255.085938 144.859375 C 253.4375 144.25 251.0625 145.996094 249.773438 148.765625 C 248.488281 151.53125 248.78125 154.269531 250.429688 154.882812 L 262.898438 159.835938 " fill-opacity="1" fill-rule="nonzero"/></g></g></g></g></svg>